<?xml version="1.0" encoding="iso-8859-1"?><!DOCTYPE svg PUBLIC "-//W3C//DTD SVG 1.1//EN" "http://www.w3.org/Graphics/SVG/1.1/DTD/svg11.dtd"><svg viewBox="0 0 512 512" xmlns="http://www.w3.org/2000/svg" xmlns:xlink="http://www.w3.org/1999/xlink"><style>:root>svg{display:none}:root>svg:target{display:block}</style><svg viewBox="0 0 512 512" id="briefcase" xmlns="http://www.w3.org/2000/svg"><path d="M297.173 176.555h-82.347a7.499 7.499 0 00-7.5 7.5c0 4.143 3.357 7.5 7.5 7.5h82.347c4.143 0 7.5-3.357 7.5-7.5s-3.357-7.5-7.5-7.5zM504.5 379.302a7.499 7.499 0 00-7.5 7.5v73.101c0 12.792-10.407 23.198-23.198 23.198h-200.3c-4.143 0-7.5 3.357-7.5 7.5s3.357 7.5 7.5 7.5H473.8c21.064 0 38.199-17.136 38.199-38.199v-73.101a7.5 7.5 0 00-7.499-7.499z"/><path d="M473.8 127.197h-89.306v-21.826c0-50.44-41.034-91.475-91.474-91.475h-74.042c-50.439 0-91.474 41.034-91.474 91.475v21.826H38.199C17.134 127.197 0 144.336 0 165.398v294.506c0 21.064 17.136 38.199 38.199 38.199h200.299c4.143 0 7.5-3.357 7.5-7.5s-3.357-7.5-7.5-7.5H38.199c-12.792 0-23.198-10.407-23.198-23.198V276.376c16.899 26.311 46.422 43.776 79.947 43.776h130.836v16.607c0 10.753 8.749 19.501 19.501 19.501h21.431c10.753 0 19.501-8.749 19.501-19.501v-16.607h130.835c33.525 0 63.048-17.466 79.947-43.776v75.426c0 4.143 3.357 7.5 7.5 7.5s7.5-3.357 7.5-7.5V165.399c.001-21.062-17.132-38.202-38.199-38.202zm-254.821-98.3h74.042c42.167 0 76.473 34.306 76.473 76.474v32.885a6.643 6.643 0 01-6.635 6.635 6.643 6.643 0 01-6.635-6.635v-32.885c0-34.85-28.353-63.202-63.201-63.202H218.98c-34.849 0-63.201 28.353-63.201 63.202 0 35.907.124 33.5-.299 34.856a6.647 6.647 0 01-6.336 4.664 6.643 6.643 0 01-6.635-6.635c-.002-12.115-.002-20.926-.002-32.885 0-42.168 34.306-76.474 76.472-76.474zm122.242 76.474v21.826H170.779v-21.826c0-26.578 21.622-48.201 48.2-48.201h74.042c26.577 0 48.2 21.623 48.2 48.201zm-74.506 235.888h-21.431c-2.439 0-4.5-2.061-4.5-4.5v-17.775-5.008-17.799a6.076 6.076 0 016.069-6.069h18.292a6.076 6.076 0 016.069 6.069l.001 22.78v17.802c0 2.439-2.061 4.5-4.5 4.5zm150.337-36.109H286.216v-10.544c0-10.753-8.748-19.501-19.501-19.501h-21.431c-10.753 0-19.501 8.749-19.501 19.501v10.544H94.948c-44.083.001-79.947-35.863-79.947-79.947v-59.806c0-12.792 10.407-23.198 23.198-23.198h89.666c1.861 10.145 10.814 17.69 21.274 17.692h.001c10.563 0 19.422-7.649 21.275-17.692h171.162c1.959 10.344 10.947 17.69 21.274 17.692h.001c10.216 0 19.281-7.22 21.275-17.692h89.666c12.792 0 23.198 10.407 23.198 23.198v59.806h.005c.003 44.083-35.861 79.947-79.944 79.947z"/></svg><svg viewBox="0 0 74 74" id="email" xmlns="http://www.w3.org/2000/svg"><path d="M38.03 59h-2.9a1 1 0 110-2h2.9a1 1 0 010 2z"/><path d="M71 59H55a1 1 0 010-2h15V17H4v40h24.13a1 1 0 010 2H3a1 1 0 01-1-1V16a1 1 0 011-1h68a1 1 0 011 1v42a1 1 0 01-1 1z"/><path d="M48 59h-2.97a1 1 0 010-2H48a1 1 0 010 2zM37 41.8a13.965 13.965 0 01-9.053-3.336L2.354 16.763a1 1 0 011.292-1.526l25.594 21.7a11.96 11.96 0 0015.52 0l25.594-21.7a1 1 0 011.292 1.526l-25.593 21.7A13.965 13.965 0 0137 41.8z"/><path d="M71 59a1 1 0 01-.646-.237l-24.771-21a1 1 0 011.293-1.526l24.77 21A1 1 0 0171 59zM3 59a1 1 0 01-.646-1.763l24.77-21a1 1 0 011.293 1.526l-24.771 21A1 1 0 013 59z"/></svg><svg viewBox="0 0 155.139 155.139" id="fb" xmlns="http://www.w3.org/2000/svg"><path d="M89.584 155.139V84.378h23.742l3.562-27.585H89.584V39.184c0-7.984 2.208-13.425 13.67-13.425l14.595-.006V1.08C115.325.752 106.661 0 96.577 0 75.52 0 61.104 12.853 61.104 36.452v20.341H37.29v27.585h23.814v70.761h28.48z"/></svg><svg fill="none" viewBox="0 0 91 36" id="logo" xmlns="http://www.w3.org/2000/svg"><path d="M8.59 30.457c-2.883 0-5.01-.727-6.38-2.18C.85 26.824.128 24.398.046 21l6.047-.791c0 .96.053 1.77.158 2.426.106.656.258 1.16.457 1.511.2.34.41.58.633.721.234.14.504.211.809.211.796 0 1.195-.574 1.195-1.723 0-1.125-.258-2.091-.774-2.9-.504-.808-1.318-1.693-2.443-2.654l-1.846-1.565a25.974 25.974 0 01-1.652-1.529c-.422-.445-.855-.99-1.3-1.635a7.356 7.356 0 01-.968-2.162c-.21-.785-.316-1.658-.316-2.619 0-2.52.756-4.459 2.268-5.818C3.838 1.102 5.935.41 8.608.398c4.78 0 7.189 2.836 7.224 8.508l-6.187.615c0-.761-.012-1.33-.035-1.705a6.865 6.865 0 00-.141-1.177c-.082-.41-.217-.692-.404-.844-.176-.164-.416-.246-.721-.246-.434.012-.762.24-.984.685a2.998 2.998 0 00-.334 1.354c0 .246.017.486.052.72.047.235.088.446.123.633.035.176.112.375.229.598.117.211.205.38.263.51.06.129.176.299.352.51.176.21.293.357.352.439.058.082.199.229.421.44.223.21.358.34.405.386.047.035.199.17.457.405.258.222.398.345.422.369l1.687 1.494a21.912 21.912 0 011.81 1.81c.505.563.985 1.213 1.442 1.952a8.366 8.366 0 011.02 2.39c.234.856.351 1.781.351 2.777 0 2.098-.72 3.862-2.162 5.291-1.43 1.43-3.316 2.145-5.66 2.145zm21.904-4.94c.386 0 .703-.081.949-.245.246-.176.422-.428.527-.756.106-.328.17-.627.194-.897a7.94 7.94 0 00.052-1.002V8.221a7.94 7.94 0 00-.053-1.002 3.853 3.853 0 00-.193-.88c-.105-.327-.281-.573-.527-.737-.246-.176-.563-.264-.95-.264-.316 0-.585.064-.808.193a1.5 1.5 0 00-.51.457c-.105.164-.187.399-.246.703-.058.293-.094.54-.105.739V23.408c.011.2.046.451.105.756.059.293.14.527.246.703.117.164.287.317.51.457.223.13.492.194.809.194zm6.785 10.16c-.868-.34-1.94-1.019-3.217-2.038-1.266-1.02-2.262-2.086-2.988-3.2h-.282a3.54 3.54 0 01-.298.018c-1.665 0-3.082-.21-4.254-.633-1.172-.433-2.104-1.072-2.795-1.916-.692-.855-1.19-1.857-1.494-3.006-.305-1.16-.457-2.525-.457-4.095V10.049c0-1.57.152-2.93.457-4.078.304-1.16.802-2.162 1.494-3.006.691-.856 1.623-1.494 2.795-1.916 1.172-.434 2.59-.65 4.254-.65 1.664 0 3.082.216 4.254.65 1.183.422 2.12 1.06 2.812 1.916.703.844 1.207 1.846 1.512 3.006.316 1.148.474 2.508.474 4.078v10.758c0 4.289-1.236 7.119-3.709 8.49 1.125 1.172 2.121 1.969 2.989 2.39l-1.547 3.99zM47.65 30L44.54.855h6.047l1.336 15.82L53.61.856h4.676l1.846 15.663L61.502.855h5.995L64.35 30h-6.398L55.93 13.547 54.085 30H47.65zm25.173 0V.855h7.682c2.004 0 3.65.17 4.94.51 1.3.328 2.337.88 3.11 1.653.774.773 1.313 1.728 1.618 2.865.316 1.125.474 2.549.474 4.271v10.512c0 1.734-.158 3.17-.474 4.307-.305 1.125-.844 2.08-1.617 2.865-.774.773-1.81 1.33-3.112 1.67-1.289.328-2.93.492-4.921.492h-7.7zm7.137-4.922h.668c.61 0 1.09-.047 1.441-.14.364-.106.633-.288.809-.545.187-.258.305-.54.352-.844.058-.317.087-.756.087-1.319V8.555c0-.563-.029-.996-.087-1.301a1.793 1.793 0 00-.352-.826c-.176-.246-.445-.416-.809-.51-.351-.094-.832-.14-1.441-.14h-.668v19.3z" fill="#fff"/></svg><svg viewBox="0 0 64 64" id="next" xmlns="http://www.w3.org/2000/svg"><path d="M37.379 12.552a2 2 0 10-2.758 2.897L49.963 30H10a2 2 0 000 4h39.899L34.621 48.552a2 2 0 102.758 2.896l17.449-16.62C55.584 34.073 56 33.069 56 32s-.416-2.073-1.207-2.862z"/></svg><svg viewBox="-62 0 512 512" id="pin" xmlns="http://www.w3.org/2000/svg"><path d="M60.945 278.219c.64-1.598 7.051-26.23 7.5-27.899-10.007-15.058-21.125-64.37-12.597-104.398 9.199-58.73 71.437-87.602 130.199-87.602v-.11c73.57.048 128.64 40.981 128.7 111.477.046 55.18-33.196 128.118-89.958 128.118h-.043c-20.258 0-45.906-9.188-52.633-18.211-7.761-10.399-9.668-23.23-5.566-36.942 10.05-32.082 22.867-70.511 24.363-96.136 1.387-24.184-15.773-39.918-38.027-39.918-16.746 0-38.496 9.726-49.336 37.058-8.953 22.707-8.762 46.48.586 72.672 3.644 10.238-16.156 76.984-22.5 98.719-15.762 53.992-37.34 122.305-32.727 160.348L53.36 512l22.368-29.313c30.953-40.519 62.957-145.332 71.484-170.835 25.21 32.648 77.71 33.586 83.832 33.586 75.184 0 160.437-74.657 158.02-178.563C386.94 75.754 320.252 0 200.43 0v.117C86.453.117 19.93 60.953 3.645 137.82c-14.915 71.274 18.253 125.52 57.3 140.399zm0 0"/></svg><svg viewBox="0 0 64 64" id="prev" xmlns="http://www.w3.org/2000/svg"><path d="M54 30H14.101l15.278-14.552a2 2 0 10-2.759-2.897L9.172 29.171A3.978 3.978 0 008 32c0 1.068.417 2.073 1.207 2.862l17.414 16.586c.387.369.883.552 1.379.552a1.999 1.999 0 001.38-3.448L14.038 34H54a2 2 0 000-4z"/></svg><svg viewBox="0 0 449.739 449.739" id="reviews" xmlns="http://www.w3.org/2000/svg"><path d="M141.515 27.664C79.523-.473-13.821 52.658 1.718 126.616c8.724 41.515 46.695 71.556 87.257 79.021 35.104 6.465 67.405-8.922 91.041-33.169-4.888 34.652-19.355 69.388-33.5 98.018-23.704 47.977-57.701 98.97-102.893 129.184-16.889 11.283-1.051 38.734 15.983 27.35 99.369-66.416 246.011-324.874 81.909-399.356zm32.628 100.519c-19.972 34.38-53.052 54.624-92.93 43.084-34.075-9.859-59.28-47.286-43.617-80.895 29.722-63.784 115.187-40.944 136.75 15.574.437 7.046.556 14.102.594 21.17-.261.368-.556.655-.797 1.067zM375.912 27.664C313.92-.473 220.579 52.658 236.115 126.616c8.719 41.515 46.697 71.556 87.26 79.021 35.104 6.465 67.405-8.922 91.038-33.169-4.89 34.652-19.347 69.388-33.499 98.018-23.704 47.977-57.696 98.97-102.896 129.184-16.889 11.283-1.046 38.734 15.985 27.35 99.372-66.416 246.019-324.874 81.909-399.356zm32.635 100.519c-19.972 34.38-53.055 54.624-92.932 43.084-34.073-9.859-59.28-47.286-43.615-80.895 28.406-60.966 107.699-42.767 133.49 8.3 2.493 9.453 3.331 19.037 3.448 28.99-.126.186-.278.317-.391.521z"/></svg><svg viewBox="0 0 512 512" id="serv-1" xmlns="http://www.w3.org/2000/svg"><path d="M29.657 258.343A8 8 0 0016 264v224a8 8 0 008 8h224a8 8 0 005.657-13.657zM32 480V283.313L228.687 480z"/><path d="M72 448h64a8 8 0 005.657-13.657l-64-64A8 8 0 0064 376v64a8 8 0 008 8zm8-52.686L116.687 432H80zM104 48h16v16h-16zM136 48h16v16h-16zM168 48h16v16h-16zM180.756 160.7A7.884 7.884 0 00176 168v88a8 8 0 004.751 7.311l72 32a7.968 7.968 0 006.5-.006v.006l72-32A8 8 0 00336 256v-88a7.884 7.884 0 00-4.756-7.3v-.011l-72-32a8.01 8.01 0 00-6.5 0l-72 32zM248 275.69l-56-24.89v-70.49l56 24.89zm72-24.89l-56 24.89V205.2l56-24.889zm-64-106.046L308.3 168 256 191.245 203.7 168zM248 320h16v40h-16zM248 72h16v40h-16zM116.507 151.268l6.896-14.432 33.487 16.001-6.896 14.432zM354.927 152.721l33.486-16 6.896 14.432-33.486 16zM116.505 280.693l33.486-16 6.896 14.431-33.486 16.001z"/><path d="M488 384h-48V259.314l47.03-47.03a30.627 30.627 0 10-43.314-43.313L440 172.687V104a8 8 0 00-2.343-5.657l-80-80A8 8 0 00352 16H104a32.036 32.036 0 00-32 32v232h16V48a16.019 16.019 0 0116-16h240v48a32.036 32.036 0 0032 32h48v76.686L298.343 314.343a8.008 8.008 0 00-2.188 4.088l-8 40a8 8 0 009.414 9.414l40-8a8 8 0 004.088-2.188L424 275.314V384H264a8 8 0 00-8 8v24h-40v16h40v24a8 8 0 008 8h224a8 8 0 008-8v-64a8 8 0 00-8-8zM360 80V43.314L412.686 96H376a16.019 16.019 0 01-16-16zm-44.686 240L440 195.314 460.686 216 336 340.686zm150.059-144a14.628 14.628 0 0110.343 24.971L472 204.686 451.314 184l3.716-3.716A14.529 14.529 0 01465.373 176zm-156.46 160.227l10.86 10.86L306.2 349.8zM480 448H272v-48h16v16h16v-16h16v16h16v-16h16v16h16v-16h16v16h16v-16h16v16h16v-16h16v16h16v-16h16z"/></svg><svg viewBox="0 0 512 512" id="serv-2" xmlns="http://www.w3.org/2000/svg"><path d="M425.736 150.581l-9.041-63.993c-.798-5.642-7.655-8.39-12.126-4.826l-50.543 40.279c-1.025.814-1.818 1.915-2.309 3.124l-35.576 89.385c-.105-2.374-.208-4.753-.33-7.106-.412-8.037-.929-16.102-1.526-24.172-.008-.116-.013-.234-.026-.349a1075.722 1075.722 0 00-5.577-55.539 47.723 47.723 0 008.744-7.571c7.548-8.364 16.003-23.719 13.422-49.38-2.927-29.102-27.01-57.172-42.482-68.939-4.576-3.48-11.406-.523-12.021 5.175-2.563 23.738-10.011 33.341-17.896 43.507-5.817 7.499-11.831 15.254-15.173 27.938-3.654 13.873-.761 27.867 8.15 39.402a49.6 49.6 0 008.247 8.38 1074.332 1074.332 0 00-5.525 57.155c-.013.117-.018.235-.025.355-.562 8.072-1.043 16.14-1.42 24.179-.075 1.606-.134 3.226-.202 4.84L191.012 45.53a7.512 7.512 0 00-9.65-4.453L91.097 74.331c-3.837 1.413-5.87 5.806-4.454 9.65l51.767 140.513c-3.666.5-6.494 3.634-6.494 7.438v56.296a7.515 7.515 0 1015.03 0v-48.781h241.49v200.908c0 31.217-25.398 56.615-56.615 56.615h-128.26c-31.217 0-56.615-25.398-56.615-56.615V320.612a7.515 7.515 0 10-15.03 0v119.743c0 39.505 32.14 71.645 71.645 71.645h128.26c39.505 0 71.645-32.14 71.645-71.645V231.932c0-3.669-2.63-6.72-6.107-7.379l27.909-70.119a7.613 7.613 0 00.468-3.853zM154.4 224.421L103.346 85.836l76.16-28.06 5.889 15.985-7.993 2.945c-3.64 1.341-5.699 5.385-4.628 9.117 1.187 4.141 5.773 6.481 9.825 4.987l7.992-2.944 5.889 15.984-23.037 8.487c-3.64 1.341-5.699 5.385-4.628 9.116 1.187 4.141 5.773 6.481 9.825 4.987l23.036-8.487 5.889 15.985c-2.587.953-5.178 1.894-7.761 2.86-4.632 1.733-6.726 7.335-3.752 11.505 1.943 2.724 5.574 3.842 8.716 2.683l7.992-2.944 5.889 15.985-23.037 8.487c-3.64 1.341-5.699 5.385-4.628 9.117 1.187 4.141 5.773 6.481 9.825 4.987l23.037-8.487 5.889 15.984-7.992 2.944c-3.64 1.341-5.699 5.385-4.628 9.116 1.187 4.141 5.773 6.481 9.825 4.987l7.992-2.944 5.968 16.199h-86.5zm112.697-.005c.169-5.374.369-10.776.619-16.13.264-5.623.584-11.262.94-16.904l31.132-.068c.381 5.64.725 11.277 1.013 16.899.275 5.362.499 10.792.692 16.203h-34.396zm2.609-48.067a1060.625 1060.625 0 014.182-42.749c3.373 1.057 6.791 1.634 10.144 1.634h.066c3.422-.008 6.864-.484 10.241-1.356a1061.867 1061.867 0 014.331 42.407l-28.964.064zm14.358-56.145h-.033c-6.901 0-15.22-4.77-20.71-11.877-3.469-4.492-8.8-13.894-5.51-26.384 2.561-9.722 7.175-15.67 12.515-22.556 6.86-8.846 14.467-18.652 18.677-37.15 12.162 12.568 25.091 31.812 26.89 49.7 1.607 15.974-1.721 29.047-9.626 37.806-6.942 7.692-16.021 10.448-22.203 10.461zm97.173 104.211h-18.333l16.482-41.413a7.515 7.515 0 10-13.966-5.558l-18.695 46.972h-18.334l34.521-86.737 15.827 6.299-4.823 12.119a7.515 7.515 0 1013.966 5.558l4.823-12.119 15.827 6.299-27.295 68.58zm-7.715-98.693l30.13-24.012 5.389 38.148-35.519-14.136z"/></svg><svg viewBox="0 0 512 512" id="serv-3" xmlns="http://www.w3.org/2000/svg"><path d="M74.667 266.667H53.333V288H64v53.333h21.333v-64c0-5.891-4.775-10.666-10.666-10.666zM160 362.667h-21.333V384h10.667v53.333h21.333v-64c0-5.891-4.776-10.666-10.667-10.666zM106.667 362.667H64c-5.891 0-10.667 4.776-10.667 10.667v53.333c0 5.891 4.776 10.667 10.667 10.667h42.667c5.891 0 10.667-4.776 10.667-10.667v-53.333c-.001-5.892-4.776-10.667-10.667-10.667zM96 416H74.667v-32H96v32zM160 266.667h-42.667c-5.891 0-10.667 4.776-10.667 10.667v53.333c0 5.891 4.776 10.667 10.667 10.667H160c5.891 0 10.667-4.776 10.667-10.667v-53.333c0-5.892-4.776-10.667-10.667-10.667zM149.333 320H128v-32h21.333v32zM245.333 266.667h-42.667c-5.891 0-10.667 4.776-10.667 10.667v53.333c0 5.891 4.776 10.667 10.667 10.667h42.667c5.891 0 10.667-4.776 10.667-10.667v-53.333c0-5.892-4.776-10.667-10.667-10.667zM234.667 320h-21.333v-32h21.333v32zM298.667 362.667H256c-5.891 0-10.667 4.776-10.667 10.667v53.333c0 5.891 4.776 10.667 10.667 10.667h42.667c5.891 0 10.667-4.776 10.667-10.667v-53.333c-.001-5.892-4.776-10.667-10.667-10.667zM288 416h-21.333v-32H288v32zM160 170.667h-21.333V192h10.667v53.333h21.333v-64c0-5.891-4.776-10.666-10.667-10.666zM298.667 170.667h-21.333V192H288v53.333h21.333v-64c0-5.891-4.775-10.666-10.666-10.666zM298.667 266.667h-21.333V288H288v53.333h21.333v-64c0-5.891-4.775-10.666-10.666-10.666zM213.333 362.667H192V384h10.667v53.333H224v-64c0-5.891-4.776-10.666-10.667-10.666zM106.667 170.667H64c-5.891 0-10.667 4.776-10.667 10.667v53.333c0 5.891 4.776 10.667 10.667 10.667h42.667c5.891 0 10.667-4.776 10.667-10.667v-53.333c-.001-5.892-4.776-10.667-10.667-10.667zM96 224H74.667v-32H96v32zM245.333 170.667h-42.667c-5.891 0-10.667 4.776-10.667 10.667v53.333c0 5.891 4.776 10.667 10.667 10.667h42.667c5.891 0 10.667-4.776 10.667-10.667v-53.333c0-5.892-4.776-10.667-10.667-10.667zM234.667 224h-21.333v-32h21.333v32z"/><path d="M352 21.333H117.333a10.67 10.67 0 00-7.541 3.125L3.125 131.125c-2 2-3.125 4.713-3.125 7.541V480c0 5.891 4.776 10.667 10.667 10.667H352c5.891 0 10.667-4.776 10.667-10.667V32c0-5.891-4.776-10.667-10.667-10.667zm-10.667 448h-320v-320h96c5.891 0 10.667-4.776 10.667-10.667v-64h-21.333V128H36.416l85.333-85.333h219.584v426.666zM426.667 21.333H384v21.333h32v426.667h-32v21.333h42.667c5.891 0 10.667-4.776 10.667-10.667V32c-.001-5.891-4.776-10.667-10.667-10.667zM501.333 21.333h-42.667v21.333h32v426.667h-32v21.333h42.667c5.891 0 10.667-4.776 10.667-10.667V32c0-5.891-4.776-10.667-10.667-10.667z"/><path d="M277.333 85.333V64H160c-5.891 0-10.667 4.776-10.667 10.667v42.667c0 5.891 4.776 10.667 10.667 10.667h117.333v-21.333H170.667V85.333h106.666zM298.667 64H320v21.333h-21.333zM298.667 106.667H320V128h-21.333z"/></svg><svg viewBox="0 0 512 512" id="tw" xmlns="http://www.w3.org/2000/svg"><path d="M512 97.248c-19.04 8.352-39.328 13.888-60.48 16.576 21.76-12.992 38.368-33.408 46.176-58.016-20.288 12.096-42.688 20.64-66.56 25.408C411.872 60.704 384.416 48 354.464 48c-58.112 0-104.896 47.168-104.896 104.992 0 8.32.704 16.32 2.432 23.936-87.264-4.256-164.48-46.08-216.352-109.792-9.056 15.712-14.368 33.696-14.368 53.056 0 36.352 18.72 68.576 46.624 87.232-16.864-.32-33.408-5.216-47.424-12.928v1.152c0 51.008 36.384 93.376 84.096 103.136-8.544 2.336-17.856 3.456-27.52 3.456-6.72 0-13.504-.384-19.872-1.792 13.6 41.568 52.192 72.128 98.08 73.12-35.712 27.936-81.056 44.768-130.144 44.768-8.608 0-16.864-.384-25.12-1.44C46.496 446.88 101.6 464 161.024 464c193.152 0 298.752-160 298.752-298.688 0-4.64-.16-9.12-.384-13.568 20.832-14.784 38.336-33.248 52.608-54.496z"/></svg></svg>