<?xml version="1.0" encoding="iso-8859-1"?>
<!-- Generator: Adobe Illustrator 19.0.0, SVG Export Plug-In . SVG Version: 6.00 Build 0)  -->
<svg version="1.1" id="Capa_1" xmlns="http://www.w3.org/2000/svg" xmlns:xlink="http://www.w3.org/1999/xlink" x="0px" y="0px"
	 viewBox="0 0 512 512" style="enable-background:new 0 0 512 512;" xml:space="preserve">
<g>
	<g>
		<path d="M297.173,176.555h-82.347c-4.143,0-7.5,3.357-7.5,7.5c0,4.143,3.357,7.5,7.5,7.5h82.347c4.143,0,7.5-3.357,7.5-7.5
			C304.673,179.912,301.316,176.555,297.173,176.555z"/>
	</g>
</g>
<g>
	<g>
		<path d="M504.5,379.302c-4.143,0-7.5,3.357-7.5,7.5v73.101c0,12.792-10.407,23.198-23.198,23.198h-200.3
			c-4.143,0-7.5,3.357-7.5,7.5s3.357,7.5,7.5,7.5H473.8c21.064,0,38.199-17.136,38.199-38.199v-73.101
			C512,382.661,508.642,379.302,504.5,379.302z"/>
	</g>
</g>
<g>
	<g>
		<path d="M473.8,127.197h-89.306v-21.826c0-50.44-41.034-91.475-91.474-91.475h-74.042c-50.439,0-91.474,41.034-91.474,91.475
			v21.826H38.199C17.134,127.197,0,144.336,0,165.398v294.506c0,21.064,17.136,38.199,38.199,38.199h200.299
			c4.143,0,7.5-3.357,7.5-7.5s-3.357-7.5-7.5-7.5H38.199c-12.792,0-23.198-10.407-23.198-23.198V276.376
			c16.899,26.311,46.422,43.776,79.947,43.776h130.836v16.607c0,10.753,8.749,19.501,19.501,19.501h21.431
			c10.753,0,19.501-8.749,19.501-19.501v-16.607h130.835c33.525,0,63.048-17.466,79.947-43.776v75.426c0,4.143,3.357,7.5,7.5,7.5
			c4.143,0,7.5-3.357,7.5-7.5c0-6.708,0-179.691,0-186.403C512,144.337,494.867,127.197,473.8,127.197z M218.979,28.897h74.042
			c42.167,0,76.473,34.306,76.473,76.474c0,18.546,0,21.005,0,32.885c0,3.658-2.976,6.634-6.635,6.635
			c-3.659,0-6.635-2.977-6.635-6.635c0-7.529,0-21.126,0-32.885c0-34.85-28.353-63.202-63.201-63.202H218.98
			c-34.849,0-63.201,28.353-63.201,63.202c0,35.907,0.124,33.5-0.299,34.856c-0.841,2.699-3.364,4.664-6.336,4.664
			c-3.658,0-6.635-2.976-6.635-6.635c-0.002-12.115-0.002-20.926-0.002-32.885C142.507,63.203,176.813,28.897,218.979,28.897z
			 M341.221,105.371v21.826H170.779v-21.826c0-26.578,21.622-48.201,48.2-48.201h74.042
			C319.598,57.17,341.221,78.793,341.221,105.371z M266.715,341.259h-21.431c-2.439,0-4.5-2.061-4.5-4.5c0-8.717,0-14.31,0-17.775
			c0-3.735,0-4.997,0-5.008c0-3.468,0-9.068,0-17.799c0-3.347,2.723-6.069,6.069-6.069h18.292c3.347,0,6.069,2.723,6.069,6.069
			c0,17.463,0,22.419,0.001,22.78c0-0.8,0-18.449,0,17.802C271.215,339.198,269.154,341.259,266.715,341.259z M417.052,305.15
			H286.216c0-3.996,0-6.518,0-10.544c0-10.753-8.748-19.501-19.501-19.501c-2.449,0-19.368,0-21.431,0
			c-10.753,0-19.501,8.749-19.501,19.501c0,4.025,0,6.546,0,10.544H94.948c-44.083,0.001-79.947-35.863-79.947-79.947v-59.806
			c0-12.792,10.407-23.198,23.198-23.198h89.666c1.861,10.145,10.814,17.69,21.274,17.692h0.001
			c10.563,0,19.422-7.649,21.275-17.692h171.162c1.959,10.344,10.947,17.69,21.274,17.692h0.001c10.216,0,19.281-7.22,21.275-17.692
			h89.666c12.792,0,23.198,10.407,23.198,23.198v59.806h0.005C496.999,269.286,461.135,305.15,417.052,305.15z"/>
	</g>
</g>
<g>
</g>
<g>
</g>
<g>
</g>
<g>
</g>
<g>
</g>
<g>
</g>
<g>
</g>
<g>
</g>
<g>
</g>
<g>
</g>
<g>
</g>
<g>
</g>
<g>
</g>
<g>
</g>
<g>
</g>
</svg>
