<?xml version="1.0" encoding="iso-8859-1"?>
<!-- Generator: Adobe Illustrator 19.0.0, SVG Export Plug-In . SVG Version: 6.00 Build 0)  -->
<svg version="1.1" id="Layer_1" xmlns="http://www.w3.org/2000/svg" xmlns:xlink="http://www.w3.org/1999/xlink" x="0px" y="0px"
	 viewBox="0 0 512 512" style="enable-background:new 0 0 512 512;" xml:space="preserve">
<g>
	<g>
		<path d="M425.736,150.581l-9.041-63.993c-0.798-5.642-7.655-8.39-12.126-4.826l-50.543,40.279
			c-1.025,0.814-1.818,1.915-2.309,3.124l-35.576,89.385c-0.105-2.374-0.208-4.753-0.33-7.106
			c-0.412-8.037-0.929-16.102-1.526-24.172c-0.008-0.116-0.013-0.234-0.026-0.349c-1.381-18.561-3.243-37.152-5.577-55.539
			c3.18-2.144,6.134-4.68,8.744-7.571c7.548-8.364,16.003-23.719,13.422-49.38c-2.927-29.102-27.01-57.172-42.482-68.939
			c-4.576-3.48-11.406-0.523-12.021,5.175c-2.563,23.738-10.011,33.341-17.896,43.507c-5.817,7.499-11.831,15.254-15.173,27.938
			c-3.654,13.873-0.761,27.867,8.15,39.402c2.447,3.167,5.24,5.973,8.247,8.38c-2.347,18.916-4.188,38.053-5.525,57.155
			c-0.013,0.117-0.018,0.235-0.025,0.355c-0.562,8.072-1.043,16.14-1.42,24.179c-0.075,1.606-0.134,3.226-0.202,4.84L191.012,45.53
			c-1.435-3.896-5.756-5.891-9.65-4.453L91.097,74.331c-3.837,1.413-5.87,5.806-4.454,9.65l51.767,140.513
			c-3.666,0.5-6.494,3.634-6.494,7.438v56.296c0,4.151,3.365,7.515,7.515,7.515c4.15,0,7.515-3.364,7.515-7.515v-48.781h241.49
			v200.908c0,31.217-25.398,56.615-56.615,56.615h-128.26c-31.217,0-56.615-25.398-56.615-56.615V320.612
			c0-4.151-3.365-7.515-7.515-7.515c-4.15,0-7.515,3.364-7.515,7.515v119.743c0,39.505,32.14,71.645,71.645,71.645h128.26
			c39.505,0,71.645-32.14,71.645-71.645V231.932c0-3.669-2.63-6.72-6.107-7.379l27.909-70.119
			C425.75,153.228,425.92,151.866,425.736,150.581z M154.4,224.421L103.346,85.836l76.16-28.06l5.889,15.985l-7.993,2.945
			c-3.64,1.341-5.699,5.385-4.628,9.117c1.187,4.141,5.773,6.481,9.825,4.987l7.992-2.944l5.889,15.984l-23.037,8.487
			c-3.64,1.341-5.699,5.385-4.628,9.116c1.187,4.141,5.773,6.481,9.825,4.987l23.036-8.487l5.889,15.985
			c-2.587,0.953-5.178,1.894-7.761,2.86c-4.632,1.733-6.726,7.335-3.752,11.505c1.943,2.724,5.574,3.842,8.716,2.683l7.992-2.944
			l5.889,15.985l-23.037,8.487c-3.64,1.341-5.699,5.385-4.628,9.117c1.187,4.141,5.773,6.481,9.825,4.987l23.037-8.487l5.889,15.984
			l-7.992,2.944c-3.64,1.341-5.699,5.385-4.628,9.116c1.187,4.141,5.773,6.481,9.825,4.987l7.992-2.944l5.968,16.199H154.4z
			 M267.097,224.416c0.169-5.374,0.369-10.776,0.619-16.13c0.264-5.623,0.584-11.262,0.94-16.904l31.132-0.068
			c0.381,5.64,0.725,11.277,1.013,16.899c0.275,5.362,0.499,10.792,0.692,16.203H267.097z M269.706,176.349
			c1.105-14.287,2.505-28.571,4.182-42.749c3.373,1.057,6.791,1.634,10.144,1.634c0.022,0,0.044,0,0.066,0
			c3.422-0.008,6.864-0.484,10.241-1.356c1.722,14.063,3.171,28.232,4.331,42.407L269.706,176.349z M284.064,120.204
			c-0.011,0-0.021,0-0.033,0c-6.901,0-15.22-4.77-20.71-11.877c-3.469-4.492-8.8-13.894-5.51-26.384
			c2.561-9.722,7.175-15.67,12.515-22.556c6.86-8.846,14.467-18.652,18.677-37.15c12.162,12.568,25.091,31.812,26.89,49.7
			c1.607,15.974-1.721,29.047-9.626,37.806C299.325,117.435,290.246,120.191,284.064,120.204z M381.237,224.415h-18.333
			l16.482-41.413c1.535-3.857-0.347-8.227-4.204-9.762c-3.858-1.531-8.227,0.349-9.762,4.204l-18.695,46.972h-18.334l34.521-86.737
			l15.827,6.299l-4.823,12.119c-1.535,3.857,0.347,8.227,4.204,9.762c3.859,1.531,8.227-0.348,9.762-4.204l4.823-12.119
			l15.827,6.299L381.237,224.415z M373.522,125.722l30.13-24.012l5.389,38.148L373.522,125.722z"/>
	</g>
</g>
<g>
</g>
<g>
</g>
<g>
</g>
<g>
</g>
<g>
</g>
<g>
</g>
<g>
</g>
<g>
</g>
<g>
</g>
<g>
</g>
<g>
</g>
<g>
</g>
<g>
</g>
<g>
</g>
<g>
</g>
</svg>
